{
  "accessors": [
    {
      "bufferView": 2,
      "componentType": 5126,
      "count": 13930,
      "max": [
        0.13863655924797058,
        0.130057230591774,
        0.034888628870248795
      ],
      "min": [
        -0.14311063289642334,
        0.0,
        -0.06747139990329742
      ],
      "type": "VEC3"
    },
    {
      "bufferView": 2,
      "byteOffset": 167160,
      "componentType": 5126,
      "count": 13930,
      "max": [
        0.9999848008155823,
        0.999882698059082,
        0.9999452829360962
      ],
      "min": [
        -0.9987223744392395,
        -0.9999887943267822,
        -0.9999715089797974
      ],
      "type": "VEC3"
    },
    {
      "bufferView": 1,
      "componentType": 5126,
      "count": 13930,
      "max": [
        0.9994098544120789,
        0.9998698234558105
      ],
      "min": [
        7.145090989979508e-07,
        0.00022163653920870274
      ],
      "type": "VEC2"
    },
    {
      "bufferView": 0,
      "componentType": 5125,
      "count": 75000,
      "type": "SCALAR"
    }
  ],
  "asset": {
    "extras": {
      "author": "Thomson 🚀 (https://sketchfab.com/thomson159)",
      "license": "CC-BY-4.0 (http://creativecommons.org/licenses/by/4.0/)",
      "source": "https://sketchfab.com/3d-models/nike-air-max-90-ce4a4e5847b34cd6b4ed0ecf134f556d",
      "title": "Nike Air Max 90"
    },
    "generator": "Sketchfab-15.70.0",
    "version": "2.0"
  },
  "bufferViews": [
    {
      "buffer": 0,
      "byteLength": 300000,
      "name": "floatBufferViews",
      "target": 34963
    },
    {
      "buffer": 0,
      "byteLength": 111440,
      "byteOffset": 300000,
      "byteStride": 8,
      "name": "floatBufferViews",
      "target": 34962
    },
    {
      "buffer": 0,
      "byteLength": 334320,
      "byteOffset": 411440,
      "byteStride": 12,
      "name": "floatBufferViews",
      "target": 34962
    }
  ],
  "buffers": [
    {
      "byteLength": 745760,
      "uri": "scene.bin"
    }
  ],
  "extensionsUsed": [
    "KHR_materials_unlit"
  ],
  "images": [
    {
      "uri": "textures/Texture_baseColor.png"
    }
  ],
  "materials": [
    {
      "extensions": {
        "KHR_materials_unlit": {}
      },
      "name": "Texture",
      "pbrMetallicRoughness": {
        "baseColorTexture": {
          "index": 0
        },
        "metallicFactor": 0.0
      }
    }
  ],
  "meshes": [
    {
      "name": "Mesh",
      "primitives": [
        {
          "attributes": {
            "NORMAL": 1,
            "POSITION": 0,
            "TEXCOORD_0": 2
          },
          "indices": 3,
          "material": 0,
          "mode": 4
        }
      ]
    }
  ],
  "nodes": [
    {
      "children": [
        1
      ],
      "matrix": [
        1.0,
        0.0,
        0.0,
        0.0,
        0.0,
        2.220446049250313e-16,
        -1.0,
        0.0,
        0.0,
        1.0,
        2.220446049250313e-16,
        0.0,
        0.0,
        0.0,
        0.0,
        1.0
      ],
      "name": "Sketchfab_model"
    },
    {
      "children": [
        2
      ],
      "matrix": [
        1.0,
        0.0,
        0.0,
        0.0,
        0.0,
        2.220446049250313e-16,
        1.0,
        0.0,
        0.0,
        -1.0,
        2.220446049250313e-16,
        0.0,
        0.0,
        0.0,
        0.0,
        1.0
      ],
      "name": "USDRoot"
    },
    {
      "children": [
        3
      ],
      "name": "ObjectCapture"
    },
    {
      "children": [
        4
      ],
      "name": "Geometry"
    },
    {
      "mesh": 0,
      "name": "Mesh"
    }
  ],
  "samplers": [
    {
      "magFilter": 9729,
      "minFilter": 9987,
      "wrapS": 10497,
      "wrapT": 10497
    }
  ],
  "scene": 0,
  "scenes": [
    {
      "name": "Sketchfab_Scene",
      "nodes": [
        0
      ]
    }
  ],
  "textures": [
    {
      "sampler": 0,
      "source": 0
    }
  ]
}
